<?xml version="1.0" encoding="UTF-8"?>
<svg xmlns="http://www.w3.org/2000/svg" width="512" height="512" viewBox="0 0 512 512">
<rect x="0.00" y="0.00" width="512.00" height="512.00" fill="rgb(23,26,36)"/>
<rect x="59.20" y="347.20" width="9.60" height="9.60" fill="rgb(242,230,179)"/>
<rect x="443.20" y="347.20" width="9.60" height="9.60" fill="rgb(242,230,179)"/>
<rect x="85.84" y="157.84" width="4.32" height="4.32" fill="rgb(217,204,166)"/>
<rect x="181.84" y="157.84" width="4.32" height="4.32" fill="rgb(217,204,166)"/>
<rect x="325.84" y="157.84" width="4.32" height="4.32" fill="rgb(217,204,166)"/>
<rect x="421.84" y="157.84" width="4.32" height="4.32" fill="rgb(217,204,166)"/>
<rect x="133.84" y="205.84" width="4.32" height="4.32" fill="rgb(217,204,166)"/>
<rect x="253.84" y="205.84" width="4.32" height="4.32" fill="rgb(217,204,166)"/>
<rect x="373.84" y="205.84" width="4.32" height="4.32" fill="rgb(217,204,166)"/>
<rect x="85.84" y="301.84" width="4.32" height="4.32" fill="rgb(217,204,166)"/>
<rect x="421.84" y="301.84" width="4.32" height="4.32" fill="rgb(217,204,166)"/>
<rect x="133.84" y="349.84" width="4.32" height="4.32" fill="rgb(217,204,166)"/>
<rect x="373.84" y="349.84" width="4.32" height="4.32" fill="rgb(217,204,166)"/>
<rect x="28.00" y="124.00" width="24.00" height="24.00" fill="rgb(38,64,191)"/>
<rect x="52.00" y="124.00" width="24.00" height="24.00" fill="rgb(38,64,191)"/>
<rect x="76.00" y="124.00" width="24.00" height="24.00" fill="rgb(38,64,191)"/>
<rect x="100.00" y="124.00" width="24.00" height="24.00" fill="rgb(38,64,191)"/>
<rect x="124.00" y="124.00" width="24.00" height="24.00" fill="rgb(38,64,191)"/>
<rect x="148.00" y="124.00" width="24.00" height="24.00" fill="rgb(38,64,191)"/>
<rect x="172.00" y="124.00" width="24.00" height="24.00" fill="rgb(38,64,191)"/>
<rect x="196.00" y="124.00" width="24.00" height="24.00" fill="rgb(38,64,191)"/>
<rect x="220.00" y="124.00" width="24.00" height="24.00" fill="rgb(38,64,191)"/>
<rect x="244.00" y="124.00" width="24.00" height="24.00" fill="rgb(38,64,191)"/>
<rect x="268.00" y="124.00" width="24.00" height="24.00" fill="rgb(38,64,191)"/>
<rect x="292.00" y="124.00" width="24.00" height="24.00" fill="rgb(38,64,191)"/>
<rect x="316.00" y="124.00" width="24.00" height="24.00" fill="rgb(38,64,191)"/>
<rect x="340.00" y="124.00" width="24.00" height="24.00" fill="rgb(38,64,191)"/>
<rect x="364.00" y="124.00" width="24.00" height="24.00" fill="rgb(38,64,191)"/>
<rect x="388.00" y="124.00" width="24.00" height="24.00" fill="rgb(38,64,191)"/>
<rect x="412.00" y="124.00" width="24.00" height="24.00" fill="rgb(38,64,191)"/>
<rect x="436.00" y="124.00" width="24.00" height="24.00" fill="rgb(38,64,191)"/>
<rect x="460.00" y="124.00" width="24.00" height="24.00" fill="rgb(38,64,191)"/>
<rect x="28.00" y="148.00" width="24.00" height="24.00" fill="rgb(38,64,191)"/>
<rect x="244.00" y="148.00" width="24.00" height="24.00" fill="rgb(38,64,191)"/>
<rect x="460.00" y="148.00" width="24.00" height="24.00" fill="rgb(38,64,191)"/>
<rect x="28.00" y="172.00" width="24.00" height="24.00" fill="rgb(38,64,191)"/>
<rect x="76.00" y="172.00" width="24.00" height="24.00" fill="rgb(38,64,191)"/>
<rect x="100.00" y="172.00" width="24.00" height="24.00" fill="rgb(38,64,191)"/>
<rect x="124.00" y="172.00" width="24.00" height="24.00" fill="rgb(38,64,191)"/>
<rect x="148.00" y="172.00" width="24.00" height="24.00" fill="rgb(38,64,191)"/>
<rect x="196.00" y="172.00" width="24.00" height="24.00" fill="rgb(38,64,191)"/>
<rect x="244.00" y="172.00" width="24.00" height="24.00" fill="rgb(38,64,191)"/>
<rect x="292.00" y="172.00" width="24.00" height="24.00" fill="rgb(38,64,191)"/>
<rect x="340.00" y="172.00" width="24.00" height="24.00" fill="rgb(38,64,191)"/>
<rect x="364.00" y="172.00" width="24.00" height="24.00" fill="rgb(38,64,191)"/>
<rect x="388.00" y="172.00" width="24.00" height="24.00" fill="rgb(38,64,191)"/>
<rect x="412.00" y="172.00" width="24.00" height="24.00" fill="rgb(38,64,191)"/>
<rect x="460.00" y="172.00" width="24.00" height="24.00" fill="rgb(38,64,191)"/>
<rect x="28.00" y="196.00" width="24.00" height="24.00" fill="rgb(38,64,191)"/>
<rect x="460.00" y="196.00" width="24.00" height="24.00" fill="rgb(38,64,191)"/>
<rect x="28.00" y="220.00" width="24.00" height="24.00" fill="rgb(38,64,191)"/>
<rect x="76.00" y="220.00" width="24.00" height="24.00" fill="rgb(38,64,191)"/>
<rect x="100.00" y="220.00" width="24.00" height="24.00" fill="rgb(38,64,191)"/>
<rect x="148.00" y="220.00" width="24.00" height="24.00" fill="rgb(38,64,191)"/>
<rect x="172.00" y="220.00" width="24.00" height="24.00" fill="rgb(38,64,191)"/>
<rect x="196.00" y="220.00" width="24.00" height="24.00" fill="rgb(38,64,191)"/>
<rect x="244.00" y="220.00" width="24.00" height="24.00" fill="rgb(38,64,191)"/>
<rect x="292.00" y="220.00" width="24.00" height="24.00" fill="rgb(38,64,191)"/>
<rect x="316.00" y="220.00" width="24.00" height="24.00" fill="rgb(38,64,191)"/>
<rect x="340.00" y="220.00" width="24.00" height="24.00" fill="rgb(38,64,191)"/>
<rect x="388.00" y="220.00" width="24.00" height="24.00" fill="rgb(38,64,191)"/>
<rect x="412.00" y="220.00" width="24.00" height="24.00" fill="rgb(38,64,191)"/>
<rect x="460.00" y="220.00" width="24.00" height="24.00" fill="rgb(38,64,191)"/>
<rect x="28.00" y="244.00" width="24.00" height="24.00" fill="rgb(38,64,191)"/>
<rect x="148.00" y="244.00" width="24.00" height="24.00" fill="rgb(38,64,191)"/>
<rect x="340.00" y="244.00" width="24.00" height="24.00" fill="rgb(38,64,191)"/>
<rect x="460.00" y="244.00" width="24.00" height="24.00" fill="rgb(38,64,191)"/>
<rect x="28.00" y="268.00" width="24.00" height="24.00" fill="rgb(38,64,191)"/>
<rect x="76.00" y="268.00" width="24.00" height="24.00" fill="rgb(38,64,191)"/>
<rect x="100.00" y="268.00" width="24.00" height="24.00" fill="rgb(38,64,191)"/>
<rect x="148.00" y="268.00" width="24.00" height="24.00" fill="rgb(38,64,191)"/>
<rect x="196.00" y="268.00" width="24.00" height="24.00" fill="rgb(38,64,191)"/>
<rect x="220.00" y="268.00" width="24.00" height="24.00" fill="rgb(38,64,191)"/>
<rect x="244.00" y="268.00" width="24.00" height="24.00" fill="rgb(38,64,191)"/>
<rect x="268.00" y="268.00" width="24.00" height="24.00" fill="rgb(38,64,191)"/>
<rect x="292.00" y="268.00" width="24.00" height="24.00" fill="rgb(38,64,191)"/>
<rect x="340.00" y="268.00" width="24.00" height="24.00" fill="rgb(38,64,191)"/>
<rect x="388.00" y="268.00" width="24.00" height="24.00" fill="rgb(38,64,191)"/>
<rect x="412.00" y="268.00" width="24.00" height="24.00" fill="rgb(38,64,191)"/>
<rect x="460.00" y="268.00" width="24.00" height="24.00" fill="rgb(38,64,191)"/>
<rect x="28.00" y="292.00" width="24.00" height="24.00" fill="rgb(38,64,191)"/>
<rect x="244.00" y="292.00" width="24.00" height="24.00" fill="rgb(38,64,191)"/>
<rect x="460.00" y="292.00" width="24.00" height="24.00" fill="rgb(38,64,191)"/>
<rect x="28.00" y="316.00" width="24.00" height="24.00" fill="rgb(38,64,191)"/>
<rect x="76.00" y="316.00" width="24.00" height="24.00" fill="rgb(38,64,191)"/>
<rect x="100.00" y="316.00" width="24.00" height="24.00" fill="rgb(38,64,191)"/>
<rect x="148.00" y="316.00" width="24.00" height="24.00" fill="rgb(38,64,191)"/>
<rect x="172.00" y="316.00" width="24.00" height="24.00" fill="rgb(38,64,191)"/>
<rect x="196.00" y="316.00" width="24.00" height="24.00" fill="rgb(38,64,191)"/>
<rect x="244.00" y="316.00" width="24.00" height="24.00" fill="rgb(38,64,191)"/>
<rect x="292.00" y="316.00" width="24.00" height="24.00" fill="rgb(38,64,191)"/>
<rect x="316.00" y="316.00" width="24.00" height="24.00" fill="rgb(38,64,191)"/>
<rect x="340.00" y="316.00" width="24.00" height="24.00" fill="rgb(38,64,191)"/>
<rect x="388.00" y="316.00" width="24.00" height="24.00" fill="rgb(38,64,191)"/>
<rect x="412.00" y="316.00" width="24.00" height="24.00" fill="rgb(38,64,191)"/>
<rect x="460.00" y="316.00" width="24.00" height="24.00" fill="rgb(38,64,191)"/>
<rect x="28.00" y="340.00" width="24.00" height="24.00" fill="rgb(38,64,191)"/>
<rect x="460.00" y="340.00" width="24.00" height="24.00" fill="rgb(38,64,191)"/>
<rect x="28.00" y="364.00" width="24.00" height="24.00" fill="rgb(38,64,191)"/>
<rect x="52.00" y="364.00" width="24.00" height="24.00" fill="rgb(38,64,191)"/>
<rect x="76.00" y="364.00" width="24.00" height="24.00" fill="rgb(38,64,191)"/>
<rect x="100.00" y="364.00" width="24.00" height="24.00" fill="rgb(38,64,191)"/>
<rect x="124.00" y="364.00" width="24.00" height="24.00" fill="rgb(38,64,191)"/>
<rect x="148.00" y="364.00" width="24.00" height="24.00" fill="rgb(38,64,191)"/>
<rect x="172.00" y="364.00" width="24.00" height="24.00" fill="rgb(38,64,191)"/>
<rect x="196.00" y="364.00" width="24.00" height="24.00" fill="rgb(38,64,191)"/>
<rect x="220.00" y="364.00" width="24.00" height="24.00" fill="rgb(38,64,191)"/>
<rect x="244.00" y="364.00" width="24.00" height="24.00" fill="rgb(38,64,191)"/>
<rect x="268.00" y="364.00" width="24.00" height="24.00" fill="rgb(38,64,191)"/>
<rect x="292.00" y="364.00" width="24.00" height="24.00" fill="rgb(38,64,191)"/>
<rect x="316.00" y="364.00" width="24.00" height="24.00" fill="rgb(38,64,191)"/>
<rect x="340.00" y="364.00" width="24.00" height="24.00" fill="rgb(38,64,191)"/>
<rect x="364.00" y="364.00" width="24.00" height="24.00" fill="rgb(38,64,191)"/>
<rect x="388.00" y="364.00" width="24.00" height="24.00" fill="rgb(38,64,191)"/>
<rect x="412.00" y="364.00" width="24.00" height="24.00" fill="rgb(38,64,191)"/>
<rect x="436.00" y="364.00" width="24.00" height="24.00" fill="rgb(38,64,191)"/>
<rect x="460.00" y="364.00" width="24.00" height="24.00" fill="rgb(38,64,191)"/>
</svg>
